<?xml version="1.0" encoding="UTF-8" standalone="no"?>
<!-- Created with Inkscape (http://www.inkscape.org/) -->

<svg
   width="170"
   height="50"
   viewBox="0 0 44.979167 13.229167"
   version="1.1"
   id="svg1"
   inkscape:version="1.3.2 (091e20e, 2023-11-25, custom)"
   sodipodi:docname="DYNDisplay.svg"
   inkscape:export-filename="..\DYNDisplay.svg"
   inkscape:export-xdpi="96"
   inkscape:export-ydpi="96"
   xmlns:inkscape="http://www.inkscape.org/namespaces/inkscape"
   xmlns:sodipodi="http://sodipodi.sourceforge.net/DTD/sodipodi-0.dtd"
   xmlns="http://www.w3.org/2000/svg"
   xmlns:svg="http://www.w3.org/2000/svg">
  <sodipodi:namedview
     id="namedview1"
     pagecolor="#405038"
     bordercolor="#000000"
     borderopacity="0.25"
     inkscape:showpageshadow="2"
     inkscape:pageopacity="0.0"
     inkscape:pagecheckerboard="0"
     inkscape:deskcolor="#d1d1d1"
     inkscape:document-units="px"
     inkscape:zoom="3.6420163"
     inkscape:cx="128.63754"
     inkscape:cy="105.84796"
     inkscape:window-width="1920"
     inkscape:window-height="1111"
     inkscape:window-x="-9"
     inkscape:window-y="-9"
     inkscape:window-maximized="1"
     inkscape:current-layer="svg1" />
  <defs
     id="defs1">
    <linearGradient
       id="swatch4"
       inkscape:swatch="solid">
      <stop
         style="stop-color:#000000;stop-opacity:1;"
         offset="0"
         id="stop4" />
    </linearGradient>
  </defs>
  <g
     inkscape:groupmode="layer"
     id="layer1"
     inkscape:label="LCD Back"
     style="display:inline"
     transform="translate(-9.260417,-6.0159179)">
    <path
       id="path8"
       style="display:inline;fill:none;fill-opacity:0.32;stroke:#000000;stroke-width:0.529167;stroke-dasharray:none;stroke-opacity:1"
       inkscape:label="Rim"
       d="M 9.865911,16.094798 A 30.798538,30.79854 0 0 1 31.75,6.9673595 30.798538,30.79854 0 0 1 53.765325,16.228131" />
    <path
       id="path2"
       style="display:inline;stroke-width:2.64584"
       inkscape:label="notches"
       d="m 31.726746,7.6726643 c -0.08046,0.00502 -0.160908,0.010357 -0.241329,0.01602 v 2.6458327 c 0.08111,-0.0057 0.16224,-0.01104 0.243396,-0.01602 0.09529,0.0057 0.190546,0.01191 0.28577,0.0186 V 7.6912678 c -0.09592,-0.00666 -0.191862,-0.012861 -0.287837,-0.018604 z m 7.559228,0.973584 -0.685229,2.5553997 c 0.07982,0.01549 0.159578,0.03134 0.239262,0.04754 0.09059,0.03019 0.181027,0.06085 0.271301,0.09198 l 0.684713,-2.5553993 c -0.0908,-0.031268 -0.181755,-0.062102 -0.272852,-0.092501 -0.079,-0.015992 -0.158068,-0.031667 -0.237195,-0.047026 z m -15.070915,0.00258 a 30.1625,30.1625 0 0 0 -0.283186,0.056327 30.1625,30.1625 0 0 0 -0.228927,0.078031 l 0.685229,2.5559157 a 27.516666,27.516666 0 0 1 0.230477,-0.07855 27.516666,27.516666 0 0 1 0.28112,-0.05581 z m 22.357292,2.9403887 -1.322917,2.29185 c 0.07319,0.0355 0.146233,0.07133 0.219108,0.107487 0.07969,0.05264 0.159096,0.105696 0.238229,0.159163 l 1.322917,-2.291333 c -0.07984,-0.05378 -0.159942,-0.107182 -0.240296,-0.160197 -0.0722,-0.03595 -0.144551,-0.0716 -0.217041,-0.10697 z m -29.643669,0.0031 c -0.08633,0.04214 -0.172458,0.08468 -0.258382,0.12764 -0.06719,0.04452 -0.134194,0.0893 -0.201021,0.134359 l 1.322917,2.29185 c 0.06732,-0.0456 0.134847,-0.09091 0.202571,-0.135909 0.08539,-0.04265 0.171003,-0.08485 0.256832,-0.126607 z m -6.137609,4.55321 c -0.134002,0.115273 -0.266989,0.231722 -0.398942,0.349333 l 1.871203,1.871203 c 0.131682,-0.117892 0.264498,-0.234515 0.398425,-0.349849 z m 42.058414,0.173116 -1.871203,1.870687 c 0.06139,0.0533 0.122538,0.106872 0.183451,0.160714 0.06342,0.0715 0.126465,0.143333 0.189136,0.21549 l 1.870687,-1.871203 c -0.06305,-0.07248 -0.126436,-0.144653 -0.19017,-0.216524 -0.06042,-0.0533 -0.121055,-0.106353 -0.181901,-0.159164 z" />
    <g
       id="g1"
       inkscape:label="text"
       style="display:none">
      <text
         xml:space="preserve"
         style="font-size:3.175px;font-family:Arial;-inkscape-font-specification:Arial;display:inline;opacity:1;fill:#000000;fill-opacity:1;stroke:none;stroke-width:0.264583;stroke-dasharray:none"
         x="4.5767913"
         y="38.707287"
         id="text1"
         inkscape:label="0 dB"><tspan
           sodipodi:role="line"
           id="tspan1"
           style="fill:#000000;fill-opacity:1;stroke:none;stroke-width:0.264583"
           x="4.5767913"
           y="38.707287">0 dB</tspan></text>
      <text
         xml:space="preserve"
         style="font-size:3.175px;font-family:Arial;-inkscape-font-specification:Arial;display:inline;opacity:1;fill:#000000;fill-opacity:1;stroke:none;stroke-width:0.264583;stroke-dasharray:none"
         x="7.9185762"
         y="25.776033"
         id="text3"
         inkscape:label="12"><tspan
           sodipodi:role="line"
           id="tspan3"
           style="fill:#000000;fill-opacity:1;stroke-width:0.264583"
           x="7.9185762"
           y="25.776033">12</tspan></text>
      <text
         xml:space="preserve"
         style="font-size:3.175px;font-family:Arial;-inkscape-font-specification:Arial;display:inline;opacity:1;fill:#000000;fill-opacity:1;stroke:none;stroke-width:0.264583;stroke-dasharray:none"
         x="17.798635"
         y="16.549805"
         id="text5"
         inkscape:label="24"><tspan
           sodipodi:role="line"
           id="tspan5"
           style="fill:#000000;fill-opacity:1;stroke-width:0.264583"
           x="17.798635"
           y="16.549805">24</tspan></text>
      <text
         xml:space="preserve"
         style="font-size:3.175px;font-family:Arial;-inkscape-font-specification:Arial;display:inline;opacity:1;fill:#000000;fill-opacity:1;stroke:none;stroke-width:0.264583;stroke-dasharray:none"
         x="30.076059"
         y="12.917429"
         id="text6"
         inkscape:label="36"><tspan
           sodipodi:role="line"
           id="tspan6"
           style="fill:#000000;fill-opacity:1;stroke-width:0.264583"
           x="30.076059"
           y="12.917429">36</tspan></text>
      <text
         xml:space="preserve"
         style="font-size:3.175px;font-family:Arial;-inkscape-font-specification:Arial;display:inline;opacity:1;fill:#000000;fill-opacity:1;stroke:none;stroke-width:0.264583;stroke-dasharray:none"
         x="42.353489"
         y="16.695099"
         id="text7"
         inkscape:label="48"><tspan
           sodipodi:role="line"
           id="tspan7"
           style="fill:#000000;fill-opacity:1;stroke-width:0.264583"
           x="42.353489"
           y="16.695099">48</tspan></text>
      <text
         xml:space="preserve"
         style="font-size:3.175px;font-family:Arial;-inkscape-font-specification:Arial;display:inline;opacity:1;fill:#000000;fill-opacity:1;stroke:none;stroke-width:0.264583;stroke-dasharray:none"
         x="51.797657"
         y="25.776035"
         id="text8"
         inkscape:label="60"><tspan
           sodipodi:role="line"
           id="tspan8"
           style="fill:#000000;fill-opacity:1;stroke-width:0.264583"
           x="51.797657"
           y="25.776035">60</tspan></text>
      <text
         xml:space="preserve"
         style="font-size:3.175px;font-family:Arial;-inkscape-font-specification:Arial;display:inline;opacity:1;fill:#000000;fill-opacity:1;stroke:none;stroke-width:0.264583;stroke-dasharray:none"
         x="50.853241"
         y="38.63464"
         id="text2"
         inkscape:label="72 dB"><tspan
           sodipodi:role="line"
           id="tspan2"
           style="fill:#000000;fill-opacity:1;stroke-width:0.264583"
           x="50.853241"
           y="38.63464">72 dB</tspan></text>
    </g>
  </g>
  <g
     inkscape:groupmode="layer"
     id="layer2"
     inkscape:label="LC Needle"
     style="display:none"
     transform="translate(-9.260417)">
    <path
       style="display:inline;opacity:0;fill:none;stroke:#000000;stroke-width:0.264583;stroke-dasharray:none;stroke-opacity:1"
       id="path26"
       sodipodi:type="arc"
       sodipodi:cx="31.75"
       sodipodi:cy="28.909081"
       sodipodi:rx="26.458334"
       sodipodi:ry="26.458334"
       sodipodi:start="0"
       sodipodi:end="6.2821471"
       sodipodi:open="true"
       sodipodi:arc-type="arc"
       d="M 58.208334,28.909081 A 26.458334,26.458334 0 0 1 31.756867,55.367414 26.458334,26.458334 0 0 1 5.2916696,28.922815 26.458334,26.458334 0 0 1 31.729398,2.4507546 26.458334,26.458334 0 0 1 58.20832,28.881611"
       inkscape:export-filename="..\DYNDisplayNeedle.svg"
       inkscape:export-xdpi="291.34329"
       inkscape:export-ydpi="291.34329"
       inkscape:label="knob" />
    <g
       id="g25"
       inkscape:label="Needle"
       transform="translate(0,-6.0159179)"
       style="display:inline">
      <path
         sodipodi:type="star"
         style="opacity:1;fill:#000000;stroke:none;stroke-width:0.264583;stroke-opacity:1"
         id="path25"
         inkscape:flatsided="true"
         sodipodi:sides="3"
         sodipodi:cx="30.076061"
         sodipodi:cy="23.39249"
         sodipodi:r1="6.5419054"
         sodipodi:r2="3.2709527"
         sodipodi:arg1="0.52359878"
         sodipodi:arg2="1.5707963"
         inkscape:rounded="0"
         inkscape:randomized="0"
         d="m 35.741518,26.663443 -11.330913,0 5.665456,-9.812858 z"
         inkscape:transform-center-y="-2.2048608"
         transform="matrix(0.04670115,0,0,1.3481461,30.345413,-14.250383)" />
      <rect
         style="opacity:1;fill:#000000;stroke:none;stroke-width:0.075779;stroke-opacity:1"
         id="rect25"
         width="0.52916664"
         height="13.229167"
         x="31.485416"
         y="21.695833" />
    </g>
  </g>
  <rect
     style="display:none;opacity:0.836248;fill:none;stroke-width:0.101639"
     id="rect1"
     width="44.979168"
     height="13.229167"
     x="0"
     y="0"
     inkscape:export-filename="..\DYNDisplayFace.svg"
     inkscape:export-xdpi="300"
     inkscape:export-ydpi="300" />
</svg>
