<?xml version="1.0" encoding="UTF-8" standalone="no"?>
<!-- Created with Inkscape (http://www.inkscape.org/) -->

<svg
   width="100"
   height="100"
   viewBox="0 0 100 100"
   version="1.1"
   id="svg1"
   xmlns="http://www.w3.org/2000/svg"
   xmlns:svg="http://www.w3.org/2000/svg">
  <defs
     id="defs1" />
  <g
     id="layer1"
     style="display:none">
    <path
       style="opacity:1;fill:#000000;fill-opacity:1;stroke-width:0.984596"
       id="path1"
       d="M 99,50 A 49,49 0 0 1 50.012718,98.999998 49,49 0 0 1 1.0000066,50.025436 49,49 0 0 1 49.961846,1.0000149 49,49 0 0 1 98.999974,49.949128" />
  </g>
  <g
     id="layer2"
     style="display:none">
    <path
       style="display:inline;opacity:1;fill:#404040;fill-opacity:1;stroke-width:0.990238;stroke-dasharray:none"
       id="path2"
       d="M 98,50 A 48,48 0 0 1 50.012458,97.999998 48,48 0 0 1 2.0000065,50.024917 48,48 0 0 1 49.962625,2.0000146 48,48 0 0 1 97.999974,49.950166" />
    <path
       style="display:inline;fill:#606060;fill-opacity:1;stroke-width:0.959293;stroke-dasharray:none"
       id="path2-0"
       d="M 96.5,50 A 46.5,46.5 0 0 1 50.012069,96.499998 46.5,46.5 0 0 1 3.5000063,50.024138 46.5,46.5 0 0 1 49.963793,3.5000141 46.5,46.5 0 0 1 96.499975,49.951723" />
  </g>
  <g
     id="layer4">
    <path
       style="fill:#000000;fill-opacity:1;stroke-width:2.06608"
       id="path4"
       d="M 94.5,50 A 44.5,44.5 0 0 1 50.01155,94.499999 44.5,44.5 0 0 1 5.500006,50.0231 44.5,44.5 0 0 1 49.96535,5.5000135 44.5,44.5 0 0 1 94.499976,49.9538" />
    <path
       style="opacity:1;fill:#b0b0b0;fill-opacity:1;stroke-width:1.34437;stroke-dasharray:none"
       id="path5"
       d="M 93.5,50 A 43.5,43.5 0 0 1 50.011291,93.499999 43.5,43.5 0 0 1 6.5000059,50.022581 43.5,43.5 0 0 1 49.966128,6.5000132 43.5,43.5 0 0 1 93.499977,49.954838" />
    <path
       style="opacity:1;fill:#e0e0e0;fill-opacity:1;stroke-width:1.26711;stroke-dasharray:none"
       id="path8"
       d="M 91,50 A 41,41 0 0 1 50.010642,90.999999 41,41 0 0 1 9.0000055,50.021283 41,41 0 0 1 49.968075,9.0000124 41,41 0 0 1 90.999978,49.957434" />
  </g>
  <g
     id="layer3"
     style="display:inline">
    <rect
       style="opacity:1;fill:#000000;fill-opacity:1;stroke-width:1.52968;stroke-dasharray:none"
       id="rect7"
       width="4"
       height="35.5"
       x="48"
       y="5" />
    <path
       style="opacity:1;fill:#000000;fill-opacity:1;stroke-width:0.990236;stroke-dasharray:none"
       id="path9"
       d="M -42.674515,17.53294 -60.62054,9.368713 -44.577099,-2.0908877 Z"
       transform="matrix(0.16558348,0.13504706,-0.11723542,0.19074064,59.136105,46.918823)" />
  </g>
</svg>
