<?xml version="1.0" encoding="UTF-8" standalone="no"?>
<!-- Created with Inkscape (http://www.inkscape.org/) -->

<svg
   width="100"
   height="100"
   viewBox="0 0 100 100"
   version="1.1"
   id="svg1"
   inkscape:export-filename="..\img\EQKnobBack.svg"
   inkscape:export-xdpi="96"
   inkscape:export-ydpi="96"
   inkscape:version="1.3.2 (091e20e, 2023-11-25, custom)"
   sodipodi:docname="EQKnob.svg"
   xmlns:inkscape="http://www.inkscape.org/namespaces/inkscape"
   xmlns:sodipodi="http://sodipodi.sourceforge.net/DTD/sodipodi-0.dtd"
   xmlns="http://www.w3.org/2000/svg"
   xmlns:svg="http://www.w3.org/2000/svg">
  <sodipodi:namedview
     id="namedview1"
     pagecolor="#ffffff"
     bordercolor="#000000"
     borderopacity="0.25"
     inkscape:showpageshadow="2"
     inkscape:pageopacity="0.0"
     inkscape:pagecheckerboard="0"
     inkscape:deskcolor="#d1d1d1"
     inkscape:document-units="px"
     inkscape:zoom="8"
     inkscape:cx="52.9375"
     inkscape:cy="51.9375"
     inkscape:window-width="1920"
     inkscape:window-height="1111"
     inkscape:window-x="-9"
     inkscape:window-y="-9"
     inkscape:window-maximized="1"
     inkscape:current-layer="layer2" />
  <defs
     id="defs1" />
  <g
     inkscape:label="Outline"
     inkscape:groupmode="layer"
     id="layer1"
     style="display:inline">
    <path
       style="opacity:1;fill:#000000;fill-opacity:1;stroke-width:0.984596"
       id="path1"
       sodipodi:type="arc"
       sodipodi:cx="50"
       sodipodi:cy="50"
       sodipodi:rx="49"
       sodipodi:ry="49"
       sodipodi:start="0"
       sodipodi:end="6.2821471"
       sodipodi:open="true"
       sodipodi:arc-type="arc"
       d="M 99,50 A 49,49 0 0 1 50.012718,98.999998 49,49 0 0 1 1.0000066,50.025436 49,49 0 0 1 49.961846,1.0000149 49,49 0 0 1 98.999974,49.949128" />
  </g>
  <g
     inkscape:groupmode="layer"
     id="layer2"
     inkscape:label="Sides"
     style="display:inline">
    <path
       style="display:inline;opacity:1;fill:#282828;fill-opacity:1;stroke-width:0.990238;stroke-dasharray:none"
       id="path2"
       sodipodi:type="arc"
       sodipodi:cx="50"
       sodipodi:cy="50"
       sodipodi:rx="48"
       sodipodi:ry="48"
       sodipodi:start="0"
       sodipodi:end="6.2821471"
       sodipodi:open="true"
       sodipodi:arc-type="arc"
       d="M 98,50 A 48,48 0 0 1 50.012458,97.999998 48,48 0 0 1 2.0000065,50.024917 48,48 0 0 1 49.962625,2.0000146 48,48 0 0 1 97.999974,49.950166"
       inkscape:label="dark"
       inkscape:export-filename="..\img\EQKnobBack.svg"
       inkscape:export-xdpi="96"
       inkscape:export-ydpi="96" />
    <path
       style="display:inline;fill:#404040;fill-opacity:1;stroke-width:0.959293;stroke-dasharray:none"
       id="path2-0"
       sodipodi:type="arc"
       sodipodi:cx="50"
       sodipodi:cy="50"
       sodipodi:rx="46.5"
       sodipodi:ry="46.5"
       sodipodi:start="0"
       sodipodi:end="6.2821471"
       sodipodi:open="true"
       sodipodi:arc-type="arc"
       d="M 96.5,50 A 46.5,46.5 0 0 1 50.012069,96.499998 46.5,46.5 0 0 1 3.5000063,50.024138 46.5,46.5 0 0 1 49.963793,3.5000141 46.5,46.5 0 0 1 96.499975,49.951723"
       inkscape:label="light" />
  </g>
  <g
     id="layer4"
     inkscape:label="Face"
     inkscape:groupmode="layer"
     style="display:none">
    <path
       style="fill:#000000;fill-opacity:1;stroke-width:2.06608"
       id="path4"
       sodipodi:type="arc"
       sodipodi:cx="50"
       sodipodi:cy="50"
       sodipodi:rx="44.5"
       sodipodi:ry="44.5"
       sodipodi:start="0"
       sodipodi:end="6.2821471"
       sodipodi:open="true"
       sodipodi:arc-type="arc"
       d="M 94.5,50 A 44.5,44.5 0 0 1 50.01155,94.499999 44.5,44.5 0 0 1 5.500006,50.0231 44.5,44.5 0 0 1 49.96535,5.5000135 44.5,44.5 0 0 1 94.499976,49.9538"
       inkscape:label="outline" />
    <path
       style="opacity:1;fill:#b0b0b0;fill-opacity:1;stroke-width:1.34437;stroke-dasharray:none"
       id="path5"
       sodipodi:type="arc"
       sodipodi:cx="50"
       sodipodi:cy="50"
       sodipodi:rx="43.5"
       sodipodi:ry="43.5"
       sodipodi:start="0"
       sodipodi:end="6.2821471"
       sodipodi:open="true"
       sodipodi:arc-type="arc"
       d="M 93.5,50 A 43.5,43.5 0 0 1 50.011291,93.499999 43.5,43.5 0 0 1 6.5000059,50.022581 43.5,43.5 0 0 1 49.966128,6.5000132 43.5,43.5 0 0 1 93.499977,49.954838"
       inkscape:label="color" />
    <path
       style="opacity:1;fill:#e0e0e0;fill-opacity:1;stroke-width:1.26711;stroke-dasharray:none"
       id="path8"
       sodipodi:type="arc"
       sodipodi:cx="50"
       sodipodi:cy="50"
       sodipodi:rx="41"
       sodipodi:ry="41"
       sodipodi:start="0"
       sodipodi:end="6.2821471"
       sodipodi:open="true"
       sodipodi:arc-type="arc"
       d="M 91,50 A 41,41 0 0 1 50.010642,90.999999 41,41 0 0 1 9.0000055,50.021283 41,41 0 0 1 49.968075,9.0000124 41,41 0 0 1 90.999978,49.957434"
       inkscape:label="color" />
  </g>
  <g
     inkscape:groupmode="layer"
     id="layer3"
     inkscape:label="Pointer"
     style="display:none">
    <rect
       style="opacity:1;fill:#000000;fill-opacity:1;stroke-width:1.52968;stroke-dasharray:none"
       id="rect7"
       width="4"
       height="35.5"
       x="48"
       y="5" />
    <path
       sodipodi:type="star"
       style="opacity:1;fill:#000000;fill-opacity:1;stroke-width:0.990236;stroke-dasharray:none"
       id="path9"
       inkscape:flatsided="true"
       sodipodi:sides="3"
       sodipodi:cx="-49.290718"
       sodipodi:cy="8.2702551"
       sodipodi:r1="11.382947"
       sodipodi:r2="9.8579216"
       sodipodi:arg1="0.95054684"
       sodipodi:arg2="1.9977444"
       inkscape:rounded="0"
       inkscape:randomized="0"
       d="M -42.674515,17.53294 -60.62054,9.368713 -44.577099,-2.0908877 Z"
       inkscape:transform-center-x="-0.077952091"
       inkscape:transform-center-y="0.74294883"
       transform="matrix(0.16558348,0.13504706,-0.11723542,0.19074064,59.136105,46.918823)"
       inkscape:label="path9" />
  </g>
</svg>
